<svg width="24" height="24" xmlns="http://www.w3.org/2000/svg" fill="#000000">

 <g>
  <title>Layer 1</title>
  <path stroke="null" fill="#DDDDDD" id="svg_1" d="m12,11.78431a5,4.6732 0 1 0 -5,-4.6732a5.006,4.67881 0 0 0 5,4.6732zm0,-7.47712a3,2.80392 0 1 1 -3,2.80392a3,2.80392 0 0 1 3,-2.80392zm-8,18.69281l16,0a1,0.93464 0 0 0 1,-0.93464l0,-3.73856a5.006,4.67881 0 0 0 -5,-4.6732l-8,0a5.006,4.67881 0 0 0 -5,4.6732l0,3.73856a1,0.93464 0 0 0 1,0.93464zm1,-4.6732a3,2.80392 0 0 1 3,-2.80392l8,0a3,2.80392 0 0 1 3,2.80392l0,2.80392l-14,0l0,-2.80392z"/>
 </g>
</svg>